<svg xmlns="http://www.w3.org/2000/svg" width="336" height="336" viewBox="0 0 336 336" shape-rendering="crispEdges" role="img"><rect width="336" height="336" fill="#EBE6D6"/><rect x="0" y="0" width="14" height="14" fill="#16140F"/><rect x="14" y="0" width="14" height="14" fill="#16140F"/><rect x="28" y="0" width="14" height="14" fill="#16140F"/><rect x="42" y="0" width="14" height="14" fill="#16140F"/><rect x="56" y="0" width="14" height="14" fill="#16140F"/><rect x="70" y="0" width="14" height="14" fill="#16140F"/><rect x="84" y="0" width="14" height="14" fill="#16140F"/><rect x="98" y="0" width="14" height="14" fill="#16140F"/><rect x="112" y="0" width="14" height="14" fill="#16140F"/><rect x="126" y="0" width="14" height="14" fill="#16140F"/><rect x="140" y="0" width="14" height="14" fill="#16140F"/><rect x="154" y="0" width="14" height="14" fill="#16140F"/><rect x="168" y="0" width="14" height="14" fill="#16140F"/><rect x="182" y="0" width="14" height="14" fill="#16140F"/><rect x="196" y="0" width="14" height="14" fill="#16140F"/><rect x="210" y="0" width="14" height="14" fill="#16140F"/><rect x="224" y="0" width="14" height="14" fill="#16140F"/><rect x="238" y="0" width="14" height="14" fill="#16140F"/><rect x="252" y="0" width="14" height="14" fill="#16140F"/><rect x="266" y="0" width="14" height="14" fill="#16140F"/><rect x="280" y="0" width="14" height="14" fill="#16140F"/><rect x="294" y="0" width="14" height="14" fill="#16140F"/><rect x="308" y="0" width="14" height="14" fill="#16140F"/><rect x="322" y="0" width="14" height="14" fill="#16140F"/><rect x="0" y="14" width="14" height="14" fill="#16140F"/><rect x="294" y="14" width="14" height="14" fill="#C9F23B"/><rect x="308" y="14" width="14" height="14" fill="#C9F23B"/><rect x="322" y="14" width="14" height="14" fill="#16140F"/><rect x="0" y="28" width="14" height="14" fill="#16140F"/><rect x="294" y="28" width="14" height="14" fill="#C9F23B"/><rect x="308" y="28" width="14" height="14" fill="#C9F23B"/><rect x="322" y="28" width="14" height="14" fill="#16140F"/><rect x="0" y="42" width="14" height="14" fill="#16140F"/><rect x="322" y="42" width="14" height="14" fill="#16140F"/><rect x="0" y="56" width="14" height="14" fill="#16140F"/><rect x="322" y="56" width="14" height="14" fill="#16140F"/><rect x="0" y="70" width="14" height="14" fill="#16140F"/><rect x="322" y="70" width="14" height="14" fill="#16140F"/><rect x="0" y="84" width="14" height="14" fill="#16140F"/><rect x="322" y="84" width="14" height="14" fill="#16140F"/><rect x="0" y="98" width="14" height="14" fill="#16140F"/><rect x="322" y="98" width="14" height="14" fill="#16140F"/><rect x="0" y="112" width="14" height="14" fill="#16140F"/><rect x="70" y="112" width="14" height="14" fill="#16140F"/><rect x="84" y="112" width="14" height="14" fill="#16140F"/><rect x="98" y="112" width="14" height="14" fill="#16140F"/><rect x="112" y="112" width="14" height="14" fill="#16140F"/><rect x="126" y="112" width="14" height="14" fill="#16140F"/><rect x="140" y="112" width="14" height="14" fill="#16140F"/><rect x="154" y="112" width="14" height="14" fill="#16140F"/><rect x="168" y="112" width="14" height="14" fill="#16140F"/><rect x="182" y="112" width="14" height="14" fill="#16140F"/><rect x="196" y="112" width="14" height="14" fill="#16140F"/><rect x="210" y="112" width="14" height="14" fill="#16140F"/><rect x="224" y="112" width="14" height="14" fill="#16140F"/><rect x="238" y="112" width="14" height="14" fill="#16140F"/><rect x="252" y="112" width="14" height="14" fill="#16140F"/><rect x="266" y="112" width="14" height="14" fill="#16140F"/><rect x="322" y="112" width="14" height="14" fill="#16140F"/><rect x="0" y="126" width="14" height="14" fill="#16140F"/><rect x="70" y="126" width="14" height="14" fill="#16140F"/><rect x="84" y="126" width="14" height="14" fill="#EBE6D6"/><rect x="98" y="126" width="14" height="14" fill="#EBE6D6"/><rect x="112" y="126" width="14" height="14" fill="#EBE6D6"/><rect x="126" y="126" width="14" height="14" fill="#EBE6D6"/><rect x="140" y="126" width="14" height="14" fill="#EBE6D6"/><rect x="154" y="126" width="14" height="14" fill="#EBE6D6"/><rect x="168" y="126" width="14" height="14" fill="#EBE6D6"/><rect x="182" y="126" width="14" height="14" fill="#EBE6D6"/><rect x="196" y="126" width="14" height="14" fill="#EBE6D6"/><rect x="210" y="126" width="14" height="14" fill="#EBE6D6"/><rect x="224" y="126" width="14" height="14" fill="#EBE6D6"/><rect x="238" y="126" width="14" height="14" fill="#EBE6D6"/><rect x="252" y="126" width="14" height="14" fill="#EBE6D6"/><rect x="266" y="126" width="14" height="14" fill="#16140F"/><rect x="322" y="126" width="14" height="14" fill="#16140F"/><rect x="0" y="140" width="14" height="14" fill="#16140F"/><rect x="70" y="140" width="14" height="14" fill="#16140F"/><rect x="84" y="140" width="14" height="14" fill="#EBE6D6"/><rect x="98" y="140" width="14" height="14" fill="#EBE6D6"/><rect x="112" y="140" width="14" height="14" fill="#EBE6D6"/><rect x="126" y="140" width="14" height="14" fill="#EBE6D6"/><rect x="140" y="140" width="14" height="14" fill="#EBE6D6"/><rect x="154" y="140" width="14" height="14" fill="#EBE6D6"/><rect x="168" y="140" width="14" height="14" fill="#EBE6D6"/><rect x="182" y="140" width="14" height="14" fill="#EBE6D6"/><rect x="196" y="140" width="14" height="14" fill="#EBE6D6"/><rect x="210" y="140" width="14" height="14" fill="#EBE6D6"/><rect x="224" y="140" width="14" height="14" fill="#EBE6D6"/><rect x="238" y="140" width="14" height="14" fill="#EBE6D6"/><rect x="252" y="140" width="14" height="14" fill="#EBE6D6"/><rect x="266" y="140" width="14" height="14" fill="#16140F"/><rect x="322" y="140" width="14" height="14" fill="#16140F"/><rect x="0" y="154" width="14" height="14" fill="#16140F"/><rect x="70" y="154" width="14" height="14" fill="#16140F"/><rect x="84" y="154" width="14" height="14" fill="#16140F"/><rect x="98" y="154" width="14" height="14" fill="#16140F"/><rect x="112" y="154" width="14" height="14" fill="#16140F"/><rect x="126" y="154" width="14" height="14" fill="#16140F"/><rect x="140" y="154" width="14" height="14" fill="#16140F"/><rect x="154" y="154" width="14" height="14" fill="#16140F"/><rect x="168" y="154" width="14" height="14" fill="#16140F"/><rect x="182" y="154" width="14" height="14" fill="#16140F"/><rect x="196" y="154" width="14" height="14" fill="#16140F"/><rect x="210" y="154" width="14" height="14" fill="#16140F"/><rect x="224" y="154" width="14" height="14" fill="#16140F"/><rect x="238" y="154" width="14" height="14" fill="#16140F"/><rect x="252" y="154" width="14" height="14" fill="#16140F"/><rect x="266" y="154" width="14" height="14" fill="#16140F"/><rect x="322" y="154" width="14" height="14" fill="#16140F"/><rect x="0" y="168" width="14" height="14" fill="#16140F"/><rect x="70" y="168" width="14" height="14" fill="#16140F"/><rect x="84" y="168" width="14" height="14" fill="#16140F"/><rect x="98" y="168" width="14" height="14" fill="#16140F"/><rect x="112" y="168" width="14" height="14" fill="#16140F"/><rect x="126" y="168" width="14" height="14" fill="#16140F"/><rect x="140" y="168" width="14" height="14" fill="#16140F"/><rect x="154" y="168" width="14" height="14" fill="#16140F"/><rect x="168" y="168" width="14" height="14" fill="#16140F"/><rect x="182" y="168" width="14" height="14" fill="#16140F"/><rect x="196" y="168" width="14" height="14" fill="#16140F"/><rect x="210" y="168" width="14" height="14" fill="#16140F"/><rect x="224" y="168" width="14" height="14" fill="#16140F"/><rect x="238" y="168" width="14" height="14" fill="#16140F"/><rect x="252" y="168" width="14" height="14" fill="#16140F"/><rect x="266" y="168" width="14" height="14" fill="#16140F"/><rect x="322" y="168" width="14" height="14" fill="#16140F"/><rect x="0" y="182" width="14" height="14" fill="#16140F"/><rect x="70" y="182" width="14" height="14" fill="#16140F"/><rect x="84" y="182" width="14" height="14" fill="#EBE6D6"/><rect x="98" y="182" width="14" height="14" fill="#EBE6D6"/><rect x="112" y="182" width="14" height="14" fill="#C9F23B"/><rect x="126" y="182" width="14" height="14" fill="#C9F23B"/><rect x="140" y="182" width="14" height="14" fill="#C9F23B"/><rect x="154" y="182" width="14" height="14" fill="#C9F23B"/><rect x="168" y="182" width="14" height="14" fill="#EBE6D6"/><rect x="182" y="182" width="14" height="14" fill="#EBE6D6"/><rect x="196" y="182" width="14" height="14" fill="#EBE6D6"/><rect x="210" y="182" width="14" height="14" fill="#EBE6D6"/><rect x="224" y="182" width="14" height="14" fill="#EBE6D6"/><rect x="238" y="182" width="14" height="14" fill="#EBE6D6"/><rect x="252" y="182" width="14" height="14" fill="#EBE6D6"/><rect x="266" y="182" width="14" height="14" fill="#16140F"/><rect x="322" y="182" width="14" height="14" fill="#16140F"/><rect x="0" y="196" width="14" height="14" fill="#16140F"/><rect x="70" y="196" width="14" height="14" fill="#16140F"/><rect x="84" y="196" width="14" height="14" fill="#EBE6D6"/><rect x="98" y="196" width="14" height="14" fill="#EBE6D6"/><rect x="112" y="196" width="14" height="14" fill="#C9F23B"/><rect x="126" y="196" width="14" height="14" fill="#C9F23B"/><rect x="140" y="196" width="14" height="14" fill="#C9F23B"/><rect x="154" y="196" width="14" height="14" fill="#C9F23B"/><rect x="168" y="196" width="14" height="14" fill="#EBE6D6"/><rect x="182" y="196" width="14" height="14" fill="#EBE6D6"/><rect x="196" y="196" width="14" height="14" fill="#EBE6D6"/><rect x="210" y="196" width="14" height="14" fill="#EBE6D6"/><rect x="224" y="196" width="14" height="14" fill="#EBE6D6"/><rect x="238" y="196" width="14" height="14" fill="#EBE6D6"/><rect x="252" y="196" width="14" height="14" fill="#EBE6D6"/><rect x="266" y="196" width="14" height="14" fill="#16140F"/><rect x="322" y="196" width="14" height="14" fill="#16140F"/><rect x="0" y="210" width="14" height="14" fill="#16140F"/><rect x="70" y="210" width="14" height="14" fill="#16140F"/><rect x="84" y="210" width="14" height="14" fill="#EBE6D6"/><rect x="98" y="210" width="14" height="14" fill="#EBE6D6"/><rect x="112" y="210" width="14" height="14" fill="#EBE6D6"/><rect x="126" y="210" width="14" height="14" fill="#EBE6D6"/><rect x="140" y="210" width="14" height="14" fill="#EBE6D6"/><rect x="154" y="210" width="14" height="14" fill="#EBE6D6"/><rect x="168" y="210" width="14" height="14" fill="#EBE6D6"/><rect x="182" y="210" width="14" height="14" fill="#EBE6D6"/><rect x="196" y="210" width="14" height="14" fill="#EBE6D6"/><rect x="210" y="210" width="14" height="14" fill="#EBE6D6"/><rect x="224" y="210" width="14" height="14" fill="#EBE6D6"/><rect x="238" y="210" width="14" height="14" fill="#EBE6D6"/><rect x="252" y="210" width="14" height="14" fill="#EBE6D6"/><rect x="266" y="210" width="14" height="14" fill="#16140F"/><rect x="322" y="210" width="14" height="14" fill="#16140F"/><rect x="0" y="224" width="14" height="14" fill="#16140F"/><rect x="70" y="224" width="14" height="14" fill="#16140F"/><rect x="84" y="224" width="14" height="14" fill="#16140F"/><rect x="98" y="224" width="14" height="14" fill="#16140F"/><rect x="112" y="224" width="14" height="14" fill="#16140F"/><rect x="126" y="224" width="14" height="14" fill="#16140F"/><rect x="140" y="224" width="14" height="14" fill="#16140F"/><rect x="154" y="224" width="14" height="14" fill="#16140F"/><rect x="168" y="224" width="14" height="14" fill="#16140F"/><rect x="182" y="224" width="14" height="14" fill="#16140F"/><rect x="196" y="224" width="14" height="14" fill="#16140F"/><rect x="210" y="224" width="14" height="14" fill="#16140F"/><rect x="224" y="224" width="14" height="14" fill="#16140F"/><rect x="238" y="224" width="14" height="14" fill="#16140F"/><rect x="252" y="224" width="14" height="14" fill="#16140F"/><rect x="266" y="224" width="14" height="14" fill="#16140F"/><rect x="322" y="224" width="14" height="14" fill="#16140F"/><rect x="0" y="238" width="14" height="14" fill="#16140F"/><rect x="322" y="238" width="14" height="14" fill="#16140F"/><rect x="0" y="252" width="14" height="14" fill="#16140F"/><rect x="322" y="252" width="14" height="14" fill="#16140F"/><rect x="0" y="266" width="14" height="14" fill="#16140F"/><rect x="322" y="266" width="14" height="14" fill="#16140F"/><rect x="0" y="280" width="14" height="14" fill="#16140F"/><rect x="322" y="280" width="14" height="14" fill="#16140F"/><rect x="0" y="294" width="14" height="14" fill="#16140F"/><rect x="322" y="294" width="14" height="14" fill="#16140F"/><rect x="0" y="308" width="14" height="14" fill="#16140F"/><rect x="322" y="308" width="14" height="14" fill="#16140F"/><rect x="0" y="322" width="14" height="14" fill="#16140F"/><rect x="14" y="322" width="14" height="14" fill="#16140F"/><rect x="28" y="322" width="14" height="14" fill="#16140F"/><rect x="42" y="322" width="14" height="14" fill="#16140F"/><rect x="56" y="322" width="14" height="14" fill="#16140F"/><rect x="70" y="322" width="14" height="14" fill="#16140F"/><rect x="84" y="322" width="14" height="14" fill="#16140F"/><rect x="98" y="322" width="14" height="14" fill="#16140F"/><rect x="112" y="322" width="14" height="14" fill="#16140F"/><rect x="126" y="322" width="14" height="14" fill="#16140F"/><rect x="140" y="322" width="14" height="14" fill="#16140F"/><rect x="154" y="322" width="14" height="14" fill="#16140F"/><rect x="168" y="322" width="14" height="14" fill="#16140F"/><rect x="182" y="322" width="14" height="14" fill="#16140F"/><rect x="196" y="322" width="14" height="14" fill="#16140F"/><rect x="210" y="322" width="14" height="14" fill="#16140F"/><rect x="224" y="322" width="14" height="14" fill="#16140F"/><rect x="238" y="322" width="14" height="14" fill="#16140F"/><rect x="252" y="322" width="14" height="14" fill="#16140F"/><rect x="266" y="322" width="14" height="14" fill="#16140F"/><rect x="280" y="322" width="14" height="14" fill="#16140F"/><rect x="294" y="322" width="14" height="14" fill="#16140F"/><rect x="308" y="322" width="14" height="14" fill="#16140F"/><rect x="322" y="322" width="14" height="14" fill="#16140F"/></svg>